# Blender 5.0.1
# www.blender.org
mtllib W4-Venuw.mtl
o Venue
v -11.881441 -0.110260 11.867178
v -11.881441 12.626741 11.867178
v -11.881441 -0.110260 -11.895704
v -11.881441 12.626741 -11.895704
v 11.881441 -0.110260 11.867178
v 11.881441 12.626741 11.867178
v 11.881441 -0.110260 -11.895704
v 11.881441 12.626741 -11.895704
v -11.538454 0.073583 11.524191
v -11.461369 12.626741 11.447105
v -11.538454 0.073583 -11.552717
v -11.461369 12.626741 -11.475632
v 11.881441 0.114901 11.447105
v 11.881441 12.626741 11.273106
v 11.881441 0.114901 -11.475632
v 11.881441 12.626741 -11.301632
vn -1.0000 -0.0000 -0.0000
vn -0.0000 -0.0000 -1.0000
vn -0.0000 -0.0000 1.0000
vn -0.0000 -1.0000 -0.0000
vn 1.0000 -0.0061 -0.0000
vn -0.0054 -0.0100 0.9999
vn -0.0054 -0.0100 -0.9999
vn -0.0018 1.0000 -0.0000
vn -0.0000 1.0000 -0.0000
vn 1.0000 -0.0000 -0.0000
vt 0.375000 0.000000
vt 0.625000 0.000000
vt 0.625000 0.250000
vt 0.375000 0.250000
vt 0.625000 0.500000
vt 0.375000 0.500000
vt 0.375000 0.750000
vt 0.625000 0.750000
vt 0.625000 1.000000
vt 0.375000 1.000000
vt 0.125000 0.500000
vt 0.125000 0.750000
s 0
f 1/1/1 2/2/1 4/3/1 3/4/1
f 3/4/2 4/3/2 8/5/2 7/6/2
f 5/7/3 6/8/3 2/9/3 1/10/3
f 3/11/4 7/6/4 5/7/4 1/12/4
f 9/1/5 11/4/5 12/3/5 10/2/5
f 11/4/6 15/6/6 16/5/6 12/3/6
f 13/7/7 9/10/7 10/9/7 14/8/7
f 11/11/8 9/12/8 13/7/8 15/6/8
f 4/3/9 2/2/9 10/2/9 12/3/9
f 8/5/9 4/3/9 12/3/9 16/5/9
f 7/6/10 8/5/10 16/5/10 15/6/10
f 5/7/10 7/6/10 15/6/10 13/7/10
f 6/8/10 5/7/10 13/7/10 14/8/10
f 2/9/9 6/8/9 14/8/9 10/9/9
